<?xml version="1.0" encoding="utf-8"?>
<!-- Generator: Adobe Illustrator 23.1.0, SVG Export Plug-In . SVG Version: 6.00 Build 0)  -->
<svg version="1.1" id="Layer_1" xmlns="http://www.w3.org/2000/svg" xmlns:xlink="http://www.w3.org/1999/xlink" x="0px" y="0px"
	 viewBox="0 0 1920 1080" style="enable-background:new 0 0 1920 1080;" xml:space="preserve">
<style type="text/css">
	.st0{fill:url(#SVGID_1_);}
	.st1{fill:#A914E0;}
	.st2{fill:url(#SVGID_2_);}
	.st3{fill:none;stroke:#000000;stroke-width:5;stroke-miterlimit:10;}
</style>
<g>
	<linearGradient id="SVGID_1_" gradientUnits="userSpaceOnUse" x1="649.375" y1="463.5" x2="1269.625" y2="463.5">
		<stop  offset="0" style="stop-color:#8C116C"/>
		<stop  offset="6.316354e-04" style="stop-color:#8C116E"/>
		<stop  offset="8.591603e-04" style="stop-color:#8E1175"/>
		<stop  offset="1.021341e-03" style="stop-color:#911280"/>
		<stop  offset="1.152491e-03" style="stop-color:#951291"/>
		<stop  offset="1.264786e-03" style="stop-color:#9B13A7"/>
		<stop  offset="1.362426e-03" style="stop-color:#A113C2"/>
		<stop  offset="1.446942e-03" style="stop-color:#A914E0"/>
		<stop  offset="1" style="stop-color:#FF304F"/>
	</linearGradient>
	<path class="st0" d="M959.5,691.63c-82.86,0-160.75-23.74-219.33-66.85c-58.55-43.08-90.79-100.36-90.79-161.27
		s32.24-118.19,90.79-161.27c58.58-43.11,136.48-66.85,219.33-66.85c82.86,0,160.75,23.74,219.33,66.85
		c58.55,43.09,90.79,100.36,90.79,161.27s-32.24,118.19-90.79,161.27C1120.25,667.88,1042.36,691.63,959.5,691.63z"/>
	<path d="M959.5,235.75c41.84,0,82.43,6.03,120.64,17.92c36.89,11.48,70.03,27.92,98.47,48.86c28.43,20.92,50.75,45.28,66.34,72.4
		c16.12,28.06,24.3,57.85,24.3,88.57s-8.18,60.51-24.3,88.57c-15.59,27.12-37.91,51.48-66.34,72.4
		c-28.45,20.94-61.58,37.37-98.47,48.86c-38.21,11.89-78.8,17.92-120.64,17.92c-41.84,0-82.43-6.03-120.64-17.92
		c-36.89-11.48-70.03-27.92-98.47-48.86c-28.43-20.92-50.75-45.28-66.34-72.4c-16.12-28.06-24.3-57.85-24.3-88.57
		s8.18-60.51,24.3-88.57c15.59-27.12,37.91-51.48,66.34-72.4c28.45-20.94,61.58-37.37,98.47-48.86
		C877.07,241.78,917.66,235.75,959.5,235.75 M959.5,235C788.02,235,649,337.3,649,463.5S788.02,692,959.5,692S1270,589.7,1270,463.5
		S1130.98,235,959.5,235L959.5,235z"/>
</g>
<g>
	<circle class="st1" cx="960.5" cy="457.5" r="97"/>
	<path d="M960.5,363c52.11,0,94.5,42.39,94.5,94.5s-42.39,94.5-94.5,94.5S866,509.61,866,457.5S908.39,363,960.5,363 M960.5,358
		c-54.95,0-99.5,44.55-99.5,99.5s44.55,99.5,99.5,99.5s99.5-44.55,99.5-99.5S1015.45,358,960.5,358L960.5,358z"/>
</g>
<g>
	<radialGradient id="SVGID_2_" cx="962" cy="460" r="28.625" gradientUnits="userSpaceOnUse">
		<stop  offset="0" style="stop-color:#FFFFFF"/>
		<stop  offset="1" style="stop-color:#FF304F"/>
	</radialGradient>
	<circle class="st2" cx="962" cy="460" r="28.63"/>
	<path d="M962,431.75c15.58,0,28.25,12.67,28.25,28.25s-12.67,28.25-28.25,28.25s-28.25-12.67-28.25-28.25S946.42,431.75,962,431.75
		 M962,431c-16.02,0-29,12.98-29,29s12.98,29,29,29s29-12.98,29-29S978.02,431,962,431L962,431z"/>
</g>
<path class="st3" d="M902.5,376.5v30c0,30,34,3,39.29,32.71"/>
<path class="st3" d="M979.82,482.87c10.68,26.63,39.68,26.63,39.68,26.63l8.1,21.46"/>
<path class="st3" d="M941.79,480.79C904.5,496.5,915.5,522.5,915.5,522.5l-22.1,8.46"/>
<path class="st3" d="M979.82,437.13c30.68-22.63,65.68-6.63,65.68-6.63l6.38-3.86l2.68-1.63"/>
</svg>
